<svg width="27" height="27" viewBox="0 0 27 27" fill="none" xmlns="http://www.w3.org/2000/svg">
<path d="M9.95123 23.2195H16.5854" stroke="#4505B3" stroke-width="2" stroke-linecap="round" stroke-linejoin="round"/>
<path d="M5.82594 10.7805C5.82457 9.79699 6.01787 8.82294 6.3947 7.91449C6.77153 7.00604 7.32443 6.18116 8.02155 5.48739C8.71866 4.79362 9.5462 4.24469 10.4564 3.87224C11.3667 3.49979 12.3417 3.31118 13.3252 3.31728C17.429 3.34779 20.7115 6.75888 20.7115 10.8742V11.6098C20.7115 15.3224 21.4882 17.4767 22.1724 18.6542C22.2461 18.78 22.2853 18.923 22.286 19.0688C22.2868 19.2147 22.2491 19.3581 22.1768 19.4847C22.1045 19.6113 22 19.7166 21.874 19.7899C21.748 19.8633 21.6048 19.9021 21.459 19.9024H5.07759C4.93176 19.9021 4.78861 19.8632 4.66258 19.7899C4.53655 19.7165 4.4321 19.6112 4.35976 19.4846C4.28742 19.358 4.24976 19.2145 4.25056 19.0687C4.25137 18.9229 4.29062 18.7798 4.36435 18.654C5.04884 17.4765 5.82594 15.3222 5.82594 11.6098L5.82594 10.7805Z" stroke="#4505B3" stroke-width="2" stroke-linecap="round" stroke-linejoin="round"/>
</svg>
