<svg width="60" height="60" viewBox="0 0 60 60" fill="none" xmlns="http://www.w3.org/2000/svg">
<path d="M50.625 18.75H9.375C8.33946 18.75 7.5 19.5895 7.5 20.625V28.125C7.5 29.1605 8.33946 30 9.375 30H50.625C51.6605 30 52.5 29.1605 52.5 28.125V20.625C52.5 19.5895 51.6605 18.75 50.625 18.75Z" stroke="#CBEB88" stroke-width="2" stroke-linecap="round" stroke-linejoin="round"/>
<path d="M48.75 30V46.875C48.75 47.3723 48.5525 47.8492 48.2008 48.2008C47.8492 48.5525 47.3723 48.75 46.875 48.75H13.125C12.6277 48.75 12.1508 48.5525 11.7992 48.2008C11.4475 47.8492 11.25 47.3723 11.25 46.875V30" stroke="#CBEB88" stroke-width="2" stroke-linecap="round" stroke-linejoin="round"/>
<path d="M30 18.75V48.75" stroke="#CBEB88" stroke-width="2" stroke-linecap="round" stroke-linejoin="round"/>
<path d="M40.6066 16.0983C37.955 18.75 30 18.75 30 18.75C30 18.75 30 10.795 32.6516 8.14338C33.7067 7.08948 35.1372 6.49769 36.6285 6.49812C38.1198 6.49854 39.5498 7.09114 40.6043 8.14564C41.6588 9.20014 42.2514 10.6302 42.2519 12.1215C42.2523 13.6128 41.6605 15.0432 40.6066 16.0983V16.0983Z" stroke="#CBEB88" stroke-width="2" stroke-linecap="round" stroke-linejoin="round"/>
<path d="M19.3934 16.0983C22.045 18.75 30 18.75 30 18.75C30 18.75 30 10.795 27.3483 8.14338C26.2932 7.08948 24.8628 6.49769 23.3715 6.49812C21.8802 6.49854 20.4501 7.09114 19.3956 8.14564C18.3411 9.20014 17.7485 10.6302 17.7481 12.1215C17.7477 13.6128 18.3395 15.0432 19.3934 16.0983V16.0983Z" stroke="#CBEB88" stroke-width="2" stroke-linecap="round" stroke-linejoin="round"/>
</svg>
