<svg width="24" height="24" viewBox="0 0 24 24" fill="none" xmlns="http://www.w3.org/2000/svg">
<g clip-path="url(#clip0)">
<path d="M22.3594 8.48342H21.3299C20.9136 7.60971 20.3393 6.80843 19.6426 6.12884L20.748 3.09167C20.8808 2.72679 20.6926 2.32329 20.3278 2.19049C18.3924 1.48624 16.2431 2.21229 15.1164 3.88399C14.7193 3.82549 14.3193 3.79596 13.9219 3.79596H10.1719C6.79828 3.79596 3.89419 5.84328 2.63573 8.76049C2.40998 8.65718 2.20341 8.51398 2.02406 8.33468C1.62563 7.93629 1.40625 7.40656 1.40625 6.84317C1.40625 6.27968 1.62567 5.75004 2.02406 5.3516C2.29866 5.07706 2.29866 4.63184 2.02406 4.35724C1.74952 4.0827 1.3043 4.0827 1.0297 4.35724C0.365672 5.02113 0 5.90398 0 6.84307C0 7.78217 0.365672 8.66496 1.0297 9.32895C1.3657 9.66495 1.75931 9.92482 2.19117 10.0998C2.04605 10.7096 1.96875 11.3454 1.96875 11.999C1.96875 14.644 3.23508 17.1058 5.37267 18.6492L5.72419 21.4615C5.76816 21.8134 6.06727 22.0774 6.42188 22.0774H9.23438C9.58898 22.0774 9.88809 21.8134 9.93206 21.4615L10.0939 20.1669H13.9999L14.1617 21.4615C14.2057 21.8134 14.5048 22.0774 14.8594 22.0774H17.6719C18.0265 22.0774 18.3256 21.8134 18.3696 21.4615L18.7211 18.6492C19.8455 17.8374 20.7378 16.765 21.3305 15.5147H22.3594C23.264 15.5147 24 14.7787 24 13.874V10.124C24 9.2194 23.264 8.48342 22.3594 8.48342ZM22.5938 13.874C22.5938 14.0033 22.4886 14.1084 22.3594 14.1084H20.8716C20.5852 14.1084 20.3274 14.2821 20.2199 14.5475C19.7026 15.8243 18.8221 16.9021 17.6735 17.6644C17.5028 17.7777 17.3901 17.9598 17.3647 18.1631L17.0512 20.6712H15.48L15.3182 19.3766C15.2743 19.0247 14.9752 18.7606 14.6205 18.7606H9.47316C9.11855 18.7606 8.81944 19.0247 8.77547 19.3766L8.61366 20.6712H7.04259L6.72909 18.1631C6.70369 17.9598 6.59091 17.7777 6.42023 17.6644C4.51341 16.3989 3.375 14.281 3.375 11.999C3.375 8.2512 6.42408 5.20217 10.1719 5.20217H13.9219C14.3899 5.20217 14.8629 5.25176 15.3278 5.34954C15.6381 5.41456 15.9534 5.26442 16.0981 4.98237C16.6866 3.83506 17.9229 3.20599 19.1579 3.34882L18.1608 6.08838C18.061 6.36256 18.1409 6.66978 18.3616 6.8607C19.1764 7.56542 19.819 8.46101 20.22 9.45054C20.3275 9.71599 20.5852 9.88967 20.8716 9.88967H22.3594C22.4886 9.88967 22.5938 9.99481 22.5938 10.124V13.874Z" fill="#C5BED1"/>
<path d="M16.9688 9.65561C17.3571 9.65561 17.6719 9.34081 17.6719 8.95248C17.6719 8.56416 17.3571 8.24936 16.9688 8.24936C16.5804 8.24936 16.2656 8.56416 16.2656 8.95248C16.2656 9.34081 16.5804 9.65561 16.9688 9.65561Z" fill="#C5BED1"/>
</g>
<defs>
<clipPath id="clip0">
<rect width="24" height="24" fill="white"/>
</clipPath>
</defs>
</svg>
