<svg width="24" height="24" viewBox="0 0 24 24" fill="none" xmlns="http://www.w3.org/2000/svg">
<path d="M12 21C16.9706 21 21 16.9706 21 12C21 7.02944 16.9706 3 12 3C7.02944 3 3 7.02944 3 12C3 16.9706 7.02944 21 12 21Z" stroke="#C5BED1" stroke-width="2" stroke-linecap="round" stroke-linejoin="round"/>
<path d="M12 18C12.6213 18 13.125 17.4963 13.125 16.875C13.125 16.2537 12.6213 15.75 12 15.75C11.3787 15.75 10.875 16.2537 10.875 16.875C10.875 17.4963 11.3787 18 12 18Z" fill="#C5BED1"/>
<path d="M11.9999 13.5004V12.7504C12.5191 12.7504 13.0266 12.5965 13.4583 12.308C13.89 12.0196 14.2264 11.6096 14.4251 11.13C14.6238 10.6503 14.6758 10.1225 14.5745 9.6133C14.4732 9.1041 14.2232 8.63637 13.8561 8.26925C13.489 7.90214 13.0213 7.65213 12.5121 7.55085C12.0029 7.44956 11.4751 7.50155 10.9954 7.70023C10.5157 7.89891 10.1058 8.23536 9.81733 8.66704C9.52889 9.09872 9.37494 9.60623 9.37494 10.1254" stroke="#C5BED1" stroke-width="2" stroke-linecap="round" stroke-linejoin="round"/>
</svg>
