<svg width="24" height="24" viewBox="0 0 24 24" fill="none" xmlns="http://www.w3.org/2000/svg">
<path d="M8.25 12.6443L16.6797 20.0625C16.7773 20.1483 16.8954 20.2073 17.0226 20.2337C17.1498 20.2602 17.2817 20.2531 17.4054 20.2132C17.529 20.1734 17.6402 20.102 17.728 20.0063C17.8158 19.9105 17.8772 19.7936 17.9063 19.667L21.4325 4.27953C21.463 4.14649 21.4566 4.00765 21.414 3.87798C21.3715 3.7483 21.2943 3.63271 21.1909 3.54365C21.0874 3.4546 20.9617 3.39545 20.8271 3.37259C20.6925 3.34973 20.5543 3.36403 20.4273 3.41394L3.12505 10.2112C2.97426 10.2705 2.8467 10.3769 2.76147 10.5147C2.67624 10.6525 2.63791 10.8142 2.65223 10.9756C2.66654 11.1369 2.73273 11.2893 2.84088 11.41C2.94903 11.5306 3.09334 11.613 3.2522 11.6447L8.25 12.6443Z" stroke="#4505B3" stroke-width="2" stroke-linecap="round" stroke-linejoin="round"/>
<path d="M8.25 12.6443L21.0105 3.42834" stroke="#4505B3" stroke-width="2" stroke-linecap="round" stroke-linejoin="round"/>
<path d="M12.46 16.3491L9.53033 19.2788C9.42544 19.3837 9.2918 19.4551 9.14632 19.4841C9.00083 19.513 8.85003 19.4982 8.71299 19.4414C8.57594 19.3846 8.45881 19.2885 8.3764 19.1652C8.29399 19.0418 8.25 18.8968 8.25 18.7485V12.6443" stroke="#4505B3" stroke-width="2" stroke-linecap="round" stroke-linejoin="round"/>
</svg>
