<svg width="15" height="19" viewBox="0 0 15 19" fill="none" xmlns="http://www.w3.org/2000/svg">
<path d="M13.368 10.512C13.608 10.512 13.808 10.592 13.968 10.752C14.128 10.896 14.208 11.088 14.208 11.328C14.208 11.568 14.128 11.768 13.968 11.928C13.808 12.072 13.608 12.144 13.368 12.144H11.832V16.872C11.832 17.272 11.72 17.584 11.496 17.808C11.272 18.016 10.984 18.12 10.632 18.12C10.136 18.12 9.784 17.864 9.576 17.352L4.68 6.24V16.992C4.68 17.344 4.584 17.624 4.392 17.832C4.2 18.024 3.944 18.12 3.624 18.12C3.288 18.12 3.024 18.024 2.832 17.832C2.656 17.624 2.568 17.344 2.568 16.992V12.144H1.032C0.792 12.144 0.592 12.072 0.432 11.928C0.272 11.768 0.192 11.568 0.192 11.328C0.192 11.088 0.272 10.896 0.432 10.752C0.592 10.592 0.792 10.512 1.032 10.512H2.568V8.496H1.032C0.792 8.496 0.592 8.424 0.432 8.28C0.272 8.12 0.192 7.92 0.192 7.68C0.192 7.44 0.272 7.248 0.432 7.104C0.592 6.944 0.792 6.864 1.032 6.864H2.568V2.208C2.568 1.808 2.68 1.504 2.904 1.296C3.128 1.072 3.416 0.959999 3.768 0.959999C4.28 0.959999 4.632 1.216 4.824 1.728L9.72 13.2V2.088C9.72 1.736 9.816 1.464 10.008 1.272C10.2 1.064 10.456 0.959999 10.776 0.959999C11.096 0.959999 11.352 1.064 11.544 1.272C11.736 1.464 11.832 1.736 11.832 2.088V6.864H13.368C13.608 6.864 13.808 6.944 13.968 7.104C14.128 7.248 14.208 7.44 14.208 7.68C14.208 7.92 14.128 8.12 13.968 8.28C13.808 8.424 13.608 8.496 13.368 8.496H11.832V10.512H13.368Z" fill="#4505B3"/>
</svg>
